{
    "asset" : {
        "generator" : "Khronos glTF Blender I/O v1.5.17",
        "version" : "2.0"
    },
    "scene" : 0,
    "scenes" : [
        {
            "name" : "Scene",
            "nodes" : [
                0,
                1,
                2,
                3,
                4,
                5,
                6,
                7,
                8,
                9,
                10,
                11,
                12
            ]
        }
    ],
    "nodes" : [
        {
            "name" : "Light",
            "rotation" : [
                0.16907575726509094,
                0.7558803558349609,
                -0.27217137813568115,
                0.570947527885437
            ],
            "scale" : [
                274.9522399902344,
                274.9522705078125,
                274.9523010253906
            ],
            "translation" : [
                1129.084716796875,
                1021.24560546875,
                -275.7914123535156
            ]
        },
        {
            "name" : "Camera",
            "rotation" : [
                0.5,
                0.5,
                -0.5,
                0.4999999701976776
            ],
            "scale" : [
                274.9522705078125,
                274.9522705078125,
                274.9522705078125
            ],
            "translation" : [
                5114.36962890625,
                191.614013671875,
                -142.0652618408203
            ]
        },
        {
            "name" : "Empty",
            "rotation" : [
                0.5,
                0.5,
                -0.5,
                0.4999999701976776
            ],
            "scale" : [
                1.4583379030227661,
                1.4583379030227661,
                1.4583379030227661
            ],
            "translation" : [
                0,
                0.1592378467321396,
                0.14698880910873413
            ]
        },
        {
            "name" : "Empty.001",
            "rotation" : [
                0,
                0.5166556239128113,
                0,
                0.8561933040618896
            ],
            "scale" : [
                186.82174682617188,
                186.82177734375,
                186.82174682617188
            ],
            "translation" : [
                8.31201171875,
                -602.0346069335938,
                0.6604156494140625
            ]
        },
        {
            "name" : "Spot",
            "translation" : [
                0,
                138.46844482421875,
                0
            ]
        },
        {
            "mesh" : 0,
            "name" : "BezierCurve.001",
            "scale" : [
                1.0538897514343262,
                0.7632817625999451,
                1.0642387866973877
            ],
            "translation" : [
                0.0007866006344556808,
                -2.202402114868164,
                -0.005174667574465275
            ]
        },
        {
            "mesh" : 1,
            "name" : "BezierCircle.004",
            "scale" : [
                2535.35400390625,
                1267.677001953125,
                2535.35400390625
            ],
            "translation" : [
                64.10025024414062,
                257.169677734375,
                -22.940673828125
            ]
        },
        {
            "mesh" : 2,
            "name" : "BezierCircle.005",
            "scale" : [
                2535.35400390625,
                1267.677001953125,
                2535.35400390625
            ],
            "translation" : [
                64.10025024414062,
                -907.14111328125,
                -22.940673828125
            ]
        },
        {
            "mesh" : 3,
            "name" : "BezierCircle.006",
            "scale" : [
                2475.87939453125,
                1237.939697265625,
                2475.87939453125
            ],
            "translation" : [
                64.10025024414062,
                1254.666015625,
                -22.940673828125
            ]
        },
        {
            "mesh" : 4,
            "name" : "BezierCircle.007",
            "rotation" : [
                0,
                0,
                -0.7071067690849304,
                0.7071068286895752
            ],
            "scale" : [
                290.7923278808594,
                581.5846557617188,
                581.5846557617188
            ],
            "translation" : [
                73.06362915039062,
                3194.64111328125,
                10.040645599365234
            ]
        },
        {
            "mesh" : 5,
            "name" : "BezierCurve.002",
            "scale" : [
                108.05701446533203,
                54.028507232666016,
                108.05701446533203
            ],
            "translation" : [
                55.359127044677734,
                396.83209228515625,
                -55.71963119506836
            ]
        },
        {
            "mesh" : 6,
            "name" : "Cylinder.002",
            "scale" : [
                108.05701446533203,
                54.028507232666016,
                108.05701446533203
            ],
            "translation" : [
                42.73329544067383,
                396.83209228515625,
                -55.71963119506836
            ]
        },
        {
            "mesh" : 7,
            "name" : "Cylinder.003",
            "scale" : [
                -612.4989013671875,
                -73.53466033935547,
                -612.4989013671875
            ],
            "translation" : [
                60.6702995300293,
                2318.354248046875,
                -3.3644351959228516
            ]
        }
    ],
    "materials" : [
        {
            "alphaMode" : "BLEND",
            "doubleSided" : true,
            "name" : "Material.001",
            "pbrMetallicRoughness" : {
                "baseColorTexture" : {
                    "index" : 0
                },
                "metallicFactor" : 0,
                "roughnessFactor" : 0.5
            }
        }
    ],
    "meshes" : [
        {
            "name" : "BezierCurve.001",
            "primitives" : [
                {
                    "attributes" : {
                        "POSITION" : 0,
                        "NORMAL" : 1,
                        "TEXCOORD_0" : 2
                    },
                    "indices" : 3,
                    "material" : 0
                }
            ]
        },
        {
            "name" : "BezierCircle.004",
            "primitives" : [
                {
                    "attributes" : {
                        "POSITION" : 4,
                        "NORMAL" : 5,
                        "TEXCOORD_0" : 6
                    },
                    "indices" : 7
                }
            ]
        },
        {
            "name" : "BezierCircle.005",
            "primitives" : [
                {
                    "attributes" : {
                        "POSITION" : 8,
                        "NORMAL" : 9,
                        "TEXCOORD_0" : 10
                    },
                    "indices" : 7
                }
            ]
        },
        {
            "name" : "BezierCircle.006",
            "primitives" : [
                {
                    "attributes" : {
                        "POSITION" : 11,
                        "NORMAL" : 12,
                        "TEXCOORD_0" : 13
                    },
                    "indices" : 7
                }
            ]
        },
        {
            "name" : "BezierCircle.007",
            "primitives" : [
                {
                    "attributes" : {
                        "POSITION" : 14,
                        "NORMAL" : 15,
                        "TEXCOORD_0" : 16
                    },
                    "indices" : 7
                }
            ]
        },
        {
            "name" : "BezierCurve.003",
            "primitives" : [
                {
                    "attributes" : {
                        "POSITION" : 17,
                        "NORMAL" : 18,
                        "TEXCOORD_0" : 19
                    },
                    "indices" : 20
                }
            ]
        },
        {
            "name" : "Cylinder.002",
            "primitives" : [
                {
                    "attributes" : {
                        "POSITION" : 21,
                        "NORMAL" : 22,
                        "TEXCOORD_0" : 23
                    },
                    "indices" : 24
                }
            ]
        },
        {
            "name" : "Cylinder.003",
            "primitives" : [
                {
                    "attributes" : {
                        "POSITION" : 25,
                        "NORMAL" : 26,
                        "TEXCOORD_0" : 27
                    },
                    "indices" : 28
                }
            ]
        }
    ],
    "textures" : [
        {
            "sampler" : 0,
            "source" : 0
        }
    ],
    "images" : [
        {
            "bufferView" : 4,
            "mimeType" : "image/png",
            "name" : "blueglass"
        }
    ],
    "accessors" : [
        {
            "bufferView" : 0,
            "componentType" : 5126,
            "count" : 5070,
            "max" : [
                1.2722707986831665,
                4.778478622436523,
                1.276976227760315
            ],
            "min" : [
                -1.2777994871139526,
                0.02003002166748047,
                -1.278074026107788
            ],
            "type" : "VEC3"
        },
        {
            "bufferView" : 1,
            "componentType" : 5126,
            "count" : 5070,
            "type" : "VEC3"
        },
        {
            "bufferView" : 2,
            "componentType" : 5126,
            "count" : 5070,
            "type" : "VEC2"
        },
        {
            "bufferView" : 3,
            "componentType" : 5123,
            "count" : 25920,
            "type" : "SCALAR"
        },
        {
            "bufferView" : 5,
            "componentType" : 5126,
            "count" : 637,
            "max" : [
                1.0099999904632568,
                0.010000001639127731,
                1.0099999904632568
            ],
            "min" : [
                -1.0099999904632568,
                -0.010000001639127731,
                -1.0099999904632568
            ],
            "type" : "VEC3"
        },
        {
            "bufferView" : 6,
            "componentType" : 5126,
            "count" : 637,
            "type" : "VEC3"
        },
        {
            "bufferView" : 7,
            "componentType" : 5126,
            "count" : 637,
            "type" : "VEC2"
        },
        {
            "bufferView" : 8,
            "componentType" : 5123,
            "count" : 3456,
            "type" : "SCALAR"
        },
        {
            "bufferView" : 9,
            "componentType" : 5126,
            "count" : 637,
            "max" : [
                1.0099999904632568,
                0.010000001639127731,
                1.0099999904632568
            ],
            "min" : [
                -1.0099999904632568,
                -0.010000001639127731,
                -1.0099999904632568
            ],
            "type" : "VEC3"
        },
        {
            "bufferView" : 10,
            "componentType" : 5126,
            "count" : 637,
            "type" : "VEC3"
        },
        {
            "bufferView" : 11,
            "componentType" : 5126,
            "count" : 637,
            "type" : "VEC2"
        },
        {
            "bufferView" : 12,
            "componentType" : 5126,
            "count" : 637,
            "max" : [
                1.0099999904632568,
                0.010000001639127731,
                1.0099999904632568
            ],
            "min" : [
                -1.0099999904632568,
                -0.010000001639127731,
                -1.0099999904632568
            ],
            "type" : "VEC3"
        },
        {
            "bufferView" : 13,
            "componentType" : 5126,
            "count" : 637,
            "type" : "VEC3"
        },
        {
            "bufferView" : 14,
            "componentType" : 5126,
            "count" : 637,
            "type" : "VEC2"
        },
        {
            "bufferView" : 15,
            "componentType" : 5126,
            "count" : 637,
            "max" : [
                1.0700000524520874,
                0.07000000774860382,
                1.0699999332427979
            ],
            "min" : [
                -1.0700000524520874,
                -0.07000000774860382,
                -1.0699999332427979
            ],
            "type" : "VEC3"
        },
        {
            "bufferView" : 16,
            "componentType" : 5126,
            "count" : 637,
            "type" : "VEC3"
        },
        {
            "bufferView" : 17,
            "componentType" : 5126,
            "count" : 637,
            "type" : "VEC2"
        },
        {
            "bufferView" : 18,
            "componentType" : 5126,
            "count" : 5070,
            "max" : [
                24.072982788085938,
                36.110931396484375,
                24.578786849975586
            ],
            "min" : [
                -23.95972442626953,
                -39.1910285949707,
                -23.689151763916016
            ],
            "type" : "VEC3"
        },
        {
            "bufferView" : 19,
            "componentType" : 5126,
            "count" : 5070,
            "type" : "VEC3"
        },
        {
            "bufferView" : 20,
            "componentType" : 5126,
            "count" : 5070,
            "type" : "VEC2"
        },
        {
            "bufferView" : 21,
            "componentType" : 5123,
            "count" : 25920,
            "type" : "SCALAR"
        },
        {
            "bufferView" : 22,
            "componentType" : 5126,
            "count" : 360,
            "max" : [
                24.031661987304688,
                -34.48571014404297,
                24.166492462158203
            ],
            "min" : [
                -23.694610595703125,
                -38.944190979003906,
                -23.559782028198242
            ],
            "type" : "VEC3"
        },
        {
            "bufferView" : 23,
            "componentType" : 5126,
            "count" : 360,
            "type" : "VEC3"
        },
        {
            "bufferView" : 24,
            "componentType" : 5126,
            "count" : 360,
            "type" : "VEC2"
        },
        {
            "bufferView" : 25,
            "componentType" : 5123,
            "count" : 1716,
            "type" : "SCALAR"
        },
        {
            "bufferView" : 26,
            "componentType" : 5126,
            "count" : 658,
            "max" : [
                1,
                1,
                1
            ],
            "min" : [
                -1,
                -9.473516464233398,
                -1
            ],
            "type" : "VEC3"
        },
        {
            "bufferView" : 27,
            "componentType" : 5126,
            "count" : 658,
            "type" : "VEC3"
        },
        {
            "bufferView" : 28,
            "componentType" : 5126,
            "count" : 658,
            "type" : "VEC2"
        },
        {
            "bufferView" : 29,
            "componentType" : 5123,
            "count" : 3444,
            "type" : "SCALAR"
        }
    ],
    "bufferViews" : [
        {
            "buffer" : 0,
            "byteLength" : 60840,
            "byteOffset" : 0
        },
        {
            "buffer" : 0,
            "byteLength" : 60840,
            "byteOffset" : 60840
        },
        {
            "buffer" : 0,
            "byteLength" : 40560,
            "byteOffset" : 121680
        },
        {
            "buffer" : 0,
            "byteLength" : 51840,
            "byteOffset" : 162240
        },
        {
            "buffer" : 0,
            "byteLength" : 8497,
            "byteOffset" : 214080
        },
        {
            "buffer" : 0,
            "byteLength" : 7644,
            "byteOffset" : 222580
        },
        {
            "buffer" : 0,
            "byteLength" : 7644,
            "byteOffset" : 230224
        },
        {
            "buffer" : 0,
            "byteLength" : 5096,
            "byteOffset" : 237868
        },
        {
            "buffer" : 0,
            "byteLength" : 6912,
            "byteOffset" : 242964
        },
        {
            "buffer" : 0,
            "byteLength" : 7644,
            "byteOffset" : 249876
        },
        {
            "buffer" : 0,
            "byteLength" : 7644,
            "byteOffset" : 257520
        },
        {
            "buffer" : 0,
            "byteLength" : 5096,
            "byteOffset" : 265164
        },
        {
            "buffer" : 0,
            "byteLength" : 7644,
            "byteOffset" : 270260
        },
        {
            "buffer" : 0,
            "byteLength" : 7644,
            "byteOffset" : 277904
        },
        {
            "buffer" : 0,
            "byteLength" : 5096,
            "byteOffset" : 285548
        },
        {
            "buffer" : 0,
            "byteLength" : 7644,
            "byteOffset" : 290644
        },
        {
            "buffer" : 0,
            "byteLength" : 7644,
            "byteOffset" : 298288
        },
        {
            "buffer" : 0,
            "byteLength" : 5096,
            "byteOffset" : 305932
        },
        {
            "buffer" : 0,
            "byteLength" : 60840,
            "byteOffset" : 311028
        },
        {
            "buffer" : 0,
            "byteLength" : 60840,
            "byteOffset" : 371868
        },
        {
            "buffer" : 0,
            "byteLength" : 40560,
            "byteOffset" : 432708
        },
        {
            "buffer" : 0,
            "byteLength" : 51840,
            "byteOffset" : 473268
        },
        {
            "buffer" : 0,
            "byteLength" : 4320,
            "byteOffset" : 525108
        },
        {
            "buffer" : 0,
            "byteLength" : 4320,
            "byteOffset" : 529428
        },
        {
            "buffer" : 0,
            "byteLength" : 2880,
            "byteOffset" : 533748
        },
        {
            "buffer" : 0,
            "byteLength" : 3432,
            "byteOffset" : 536628
        },
        {
            "buffer" : 0,
            "byteLength" : 7896,
            "byteOffset" : 540060
        },
        {
            "buffer" : 0,
            "byteLength" : 7896,
            "byteOffset" : 547956
        },
        {
            "buffer" : 0,
            "byteLength" : 5264,
            "byteOffset" : 555852
        },
        {
            "buffer" : 0,
            "byteLength" : 6888,
            "byteOffset" : 561116
        }
    ],
    "samplers" : [
        {
            "magFilter" : 9729,
            "minFilter" : 9987
        }
    ],
    "buffers" : [
        {
            "byteLength" : 568004,
            "uri" : "data:application/octet-stream;base64,"
        }
    ]
}
