{
    "asset" : {
        "generator" : "Khronos glTF Blender I/O v1.5.17",
        "version" : "2.0"
    },
    "scene" : 0,
    "scenes" : [
        {
            "name" : "Scene",
            "nodes" : [
                0,
                1,
                2,
                3,
                4,
                5
            ]
        }
    ],
    "nodes" : [
        {
            "name" : "Light",
            "rotation" : [
                0.16907575726509094,
                0.7558803558349609,
                -0.27217137813568115,
                0.570947527885437
            ],
            "scale" : [
                274.9522399902344,
                274.9522705078125,
                274.9523010253906
            ],
            "translation" : [
                1129.084716796875,
                1021.24560546875,
                -275.7914123535156
            ]
        },
        {
            "name" : "Camera",
            "rotation" : [
                0.5,
                0.5,
                -0.5,
                0.4999999701976776
            ],
            "scale" : [
                274.9522705078125,
                274.9522705078125,
                274.9522705078125
            ],
            "translation" : [
                5114.36962890625,
                191.614013671875,
                -142.0652618408203
            ]
        },
        {
            "name" : "Empty",
            "rotation" : [
                0.5,
                0.5,
                -0.5,
                0.4999999701976776
            ],
            "translation" : [
                0,
                0.1592378467321396,
                0.14698880910873413
            ]
        },
        {
            "mesh" : 0,
            "name" : "BezierCurve",
            "scale" : [
                186.82177734375,
                186.82177734375,
                186.82177734375
            ],
            "translation" : [
                8.31201171875,
                -602.0346069335938,
                0.6604156494140625
            ]
        },
        {
            "name" : "Empty.001",
            "rotation" : [
                0,
                0.5166556239128113,
                0,
                0.8561933040618896
            ],
            "scale" : [
                186.82174682617188,
                186.82177734375,
                186.82174682617188
            ],
            "translation" : [
                8.31201171875,
                -602.0346069335938,
                0.6604156494140625
            ]
        },
        {
            "name" : "Spot",
            "translation" : [
                0,
                138.46844482421875,
                0
            ]
        }
    ],
    "materials" : [
        {
            "alphaMode" : "BLEND",
            "doubleSided" : true,
            "name" : "Material.001",
            "pbrMetallicRoughness" : {
                "baseColorTexture" : {
                    "index" : 0
                },
                "metallicFactor" : 0,
                "roughnessFactor" : 0.5
            }
        }
    ],
    "meshes" : [
        {
            "name" : "BezierCurve.002",
            "primitives" : [
                {
                    "attributes" : {
                        "POSITION" : 0,
                        "NORMAL" : 1,
                        "TEXCOORD_0" : 2
                    },
                    "indices" : 3,
                    "material" : 0
                }
            ]
        }
    ],
    "textures" : [
        {
            "sampler" : 0,
            "source" : 0
        }
    ],
    "images" : [
        {
            "bufferView" : 4,
            "mimeType" : "image/png",
            "name" : "blueglass"
        }
    ],
    "accessors" : [
        {
            "bufferView" : 0,
            "componentType" : 5126,
            "count" : 5070,
            "max" : [
                1.2722707986831665,
                4.778478622436523,
                1.276976227760315
            ],
            "min" : [
                -1.2777994871139526,
                0.02003002166748047,
                -1.278074026107788
            ],
            "type" : "VEC3"
        },
        {
            "bufferView" : 1,
            "componentType" : 5126,
            "count" : 5070,
            "type" : "VEC3"
        },
        {
            "bufferView" : 2,
            "componentType" : 5126,
            "count" : 5070,
            "type" : "VEC2"
        },
        {
            "bufferView" : 3,
            "componentType" : 5123,
            "count" : 25920,
            "type" : "SCALAR"
        }
    ],
    "bufferViews" : [
        {
            "buffer" : 0,
            "byteLength" : 60840,
            "byteOffset" : 0
        },
        {
            "buffer" : 0,
            "byteLength" : 60840,
            "byteOffset" : 60840
        },
        {
            "buffer" : 0,
            "byteLength" : 40560,
            "byteOffset" : 121680
        },
        {
            "buffer" : 0,
            "byteLength" : 51840,
            "byteOffset" : 162240
        },
        {
            "buffer" : 0,
            "byteLength" : 8497,
            "byteOffset" : 214080
        }
    ],
    "samplers" : [
        {
            "magFilter" : 9729,
            "minFilter" : 9987
        }
    ],
    "buffers" : [
        {
            "byteLength" : 222580,
            "uri" : "data:application/octet-stream;base64,"
        }
    ]
}
