{
    "asset" : {
        "generator" : "Khronos glTF Blender I/O v1.5.17",
        "version" : "2.0"
    },
    "extensionsUsed" : [
        "KHR_materials_clearcoat",
        "KHR_materials_transmission"
    ],
    "scene" : 0,
    "scenes" : [
        {
            "name" : "Scene",
            "nodes" : [
                0,
                1,
                2,
                3,
                4,
                5,
                6
            ]
        }
    ],
    "nodes" : [
        {
            "name" : "Light",
            "rotation" : [
                0.16907575726509094,
                0.7558803558349609,
                -0.27217137813568115,
                0.570947527885437
            ],
            "translation" : [
                9.124895095825195,
                151.11264038085938,
                -1.0054539442062378
            ]
        },
        {
            "name" : "Camera",
            "rotation" : [
                0.483536034822464,
                0.33687159419059753,
                -0.20870360732078552,
                0.7804827094078064
            ],
            "translation" : [
                7.358891487121582,
                4.958309173583984,
                6.925790786743164
            ]
        },
        {
            "name" : "Empty",
            "rotation" : [
                0.5,
                0.5,
                -0.5,
                0.4999999701976776
            ],
            "scale" : [
                25.41923713684082,
                25.41923713684082,
                25.41923713684082
            ],
            "translation" : [
                0,
                59.19393539428711,
                38.90275955200195
            ]
        },
        {
            "mesh" : 0,
            "name" : "Cube",
            "scale" : [
                1,
                1,
                12.142374038696289
            ],
            "translation" : [
                0,
                17.26228904724121,
                0
            ]
        },
        {
            "mesh" : 1,
            "name" : "Plane",
            "scale" : [
                295.1529846191406,
                295.1529846191406,
                295.1529846191406
            ]
        },
        {
            "name" : "Area",
            "rotation" : [
                -0.10277846455574036,
                0.36742734909057617,
                0.42990124225616455,
                0.8183022737503052
            ],
            "translation" : [
                -44.509544372558594,
                63.62052917480469,
                0
            ]
        },
        {
            "name" : "Area.001",
            "rotation" : [
                -0.43552350997924805,
                0.6270841360092163,
                0.06213650107383728,
                0.6428248882293701
            ],
            "translation" : [
                -38.86628341674805,
                59.9331169128418,
                -26.079607009887695
            ]
        }
    ],
    "materials" : [
        {
            "doubleSided" : true,
            "extensions" : {
                "KHR_materials_clearcoat" : {
                    "clearcoatFactor" : 1,
                    "clearcoatRoughnessFactor" : 1
                },
                "KHR_materials_transmission" : {
                    "transmissionFactor" : 1
                }
            },
            "name" : "Material.001",
            "pbrMetallicRoughness" : {
                "baseColorTexture" : {
                    "index" : 0
                },
                "roughnessFactor" : 0
            }
        }
    ],
    "meshes" : [
        {
            "name" : "Cube.002",
            "primitives" : [
                {
                    "attributes" : {
                        "POSITION" : 0,
                        "NORMAL" : 1,
                        "TEXCOORD_0" : 2
                    },
                    "indices" : 3,
                    "material" : 0
                }
            ]
        },
        {
            "name" : "Plane",
            "primitives" : [
                {
                    "attributes" : {
                        "POSITION" : 4,
                        "NORMAL" : 5,
                        "TEXCOORD_0" : 6
                    },
                    "indices" : 7
                }
            ]
        }
    ],
    "textures" : [
        {
            "sampler" : 0,
            "source" : 0
        }
    ],
    "images" : [
        {
            "bufferView" : 4,
            "mimeType" : "image/png",
            "name" : "bottle2"
        }
    ],
    "accessors" : [
        {
            "bufferView" : 0,
            "componentType" : 5126,
            "count" : 982,
            "max" : [
                2.0000481605529785,
                41.09503936767578,
                1.1998144388198853
            ],
            "min" : [
                -10.993158340454102,
                -17.14950942993164,
                -1.2541104555130005
            ],
            "type" : "VEC3"
        },
        {
            "bufferView" : 1,
            "componentType" : 5126,
            "count" : 982,
            "type" : "VEC3"
        },
        {
            "bufferView" : 2,
            "componentType" : 5126,
            "count" : 982,
            "type" : "VEC2"
        },
        {
            "bufferView" : 3,
            "componentType" : 5123,
            "count" : 5880,
            "type" : "SCALAR"
        },
        {
            "bufferView" : 5,
            "componentType" : 5126,
            "count" : 4,
            "max" : [
                1,
                0,
                1
            ],
            "min" : [
                -1,
                0,
                -1
            ],
            "type" : "VEC3"
        },
        {
            "bufferView" : 6,
            "componentType" : 5126,
            "count" : 4,
            "type" : "VEC3"
        },
        {
            "bufferView" : 7,
            "componentType" : 5126,
            "count" : 4,
            "type" : "VEC2"
        },
        {
            "bufferView" : 8,
            "componentType" : 5123,
            "count" : 6,
            "type" : "SCALAR"
        }
    ],
    "bufferViews" : [
        {
            "buffer" : 0,
            "byteLength" : 11784,
            "byteOffset" : 0
        },
        {
            "buffer" : 0,
            "byteLength" : 11784,
            "byteOffset" : 11784
        },
        {
            "buffer" : 0,
            "byteLength" : 7856,
            "byteOffset" : 23568
        },
        {
            "buffer" : 0,
            "byteLength" : 11760,
            "byteOffset" : 31424
        },
        {
            "buffer" : 0,
            "byteLength" : 50052,
            "byteOffset" : 43184
        },
        {
            "buffer" : 0,
            "byteLength" : 48,
            "byteOffset" : 93236
        },
        {
            "buffer" : 0,
            "byteLength" : 48,
            "byteOffset" : 93284
        },
        {
            "buffer" : 0,
            "byteLength" : 32,
            "byteOffset" : 93332
        },
        {
            "buffer" : 0,
            "byteLength" : 12,
            "byteOffset" : 93364
        }
    ],
    "samplers" : [
        {
            "magFilter" : 9729,
            "minFilter" : 9987
        }
    ],
    "buffers" : [
        {
            "byteLength" : 93376,
            "uri" : "data:application/octet-stream;base64,"
        }
    ]
}
