{
    "asset" : {
        "generator" : "Khronos glTF Blender I/O v1.5.17",
        "version" : "2.0"
    },
    "scene" : 0,
    "scenes" : [
        {
            "name" : "Scene",
            "nodes" : [
                0,
                1,
                2
            ]
        }
    ],
    "nodes" : [
        {
            "name" : "Empty",
            "rotation" : [
                0.5,
                0.5,
                -0.5,
                0.4999999701976776
            ],
            "scale" : [
                6.360408782958984,
                6.360408782958984,
                6.360408782958984
            ],
            "translation" : [
                0,
                15.082657814025879,
                10.644954681396484
            ]
        },
        {
            "mesh" : 0,
            "name" : "Cube",
            "rotation" : [
                0,
                -0.7334351539611816,
                0,
                0.6797594428062439
            ],
            "scale" : [
                0.08344535529613495,
                0.08344535529613495,
                1.013224720954895
            ],
            "translation" : [
                0,
                -0.04744851589202881,
                -0.053993597626686096
            ]
        },
        {
            "name" : "Camera",
            "rotation" : [
                0.5,
                0.5,
                -0.5,
                0.4999999701976776
            ],
            "translation" : [
                19.99001693725586,
                0.5654858946800232,
                -0.8525266647338867
            ]
        }
    ],
    "materials" : [
        {
            "doubleSided" : true,
            "name" : "Material.001",
            "normalTexture" : {
                "index" : 0
            },
            "pbrMetallicRoughness" : {
                "baseColorTexture" : {
                    "index" : 1
                },
                "metallicFactor" : 0,
                "roughnessFactor" : 0.596969723701477
            }
        }
    ],
    "meshes" : [
        {
            "name" : "Cube.002",
            "primitives" : [
                {
                    "attributes" : {
                        "POSITION" : 0,
                        "NORMAL" : 1,
                        "TEXCOORD_0" : 2
                    },
                    "indices" : 3,
                    "material" : 0
                }
            ]
        }
    ],
    "textures" : [
        {
            "sampler" : 0,
            "source" : 0
        },
        {
            "sampler" : 0,
            "source" : 0
        }
    ],
    "images" : [
        {
            "bufferView" : 4,
            "mimeType" : "image/jpeg",
            "name" : "bottleA"
        }
    ],
    "accessors" : [
        {
            "bufferView" : 0,
            "componentType" : 5126,
            "count" : 1964,
            "max" : [
                10.993158340454102,
                41.09503936767578,
                1.1998144388198853
            ],
            "min" : [
                -10.993158340454102,
                -17.14950942993164,
                -1.2541104555130005
            ],
            "type" : "VEC3"
        },
        {
            "bufferView" : 1,
            "componentType" : 5126,
            "count" : 1964,
            "type" : "VEC3"
        },
        {
            "bufferView" : 2,
            "componentType" : 5126,
            "count" : 1964,
            "type" : "VEC2"
        },
        {
            "bufferView" : 3,
            "componentType" : 5123,
            "count" : 11760,
            "type" : "SCALAR"
        }
    ],
    "bufferViews" : [
        {
            "buffer" : 0,
            "byteLength" : 23568,
            "byteOffset" : 0
        },
        {
            "buffer" : 0,
            "byteLength" : 23568,
            "byteOffset" : 23568
        },
        {
            "buffer" : 0,
            "byteLength" : 15712,
            "byteOffset" : 47136
        },
        {
            "buffer" : 0,
            "byteLength" : 23520,
            "byteOffset" : 62848
        },
        {
            "buffer" : 0,
            "byteLength" : 193048,
            "byteOffset" : 86368
        }
    ],
    "samplers" : [
        {
            "magFilter" : 9729,
            "minFilter" : 9987
        }
    ],
    "buffers" : [
        {
            "byteLength" : 279416,
            "uri" : "data:application/octet-stream;base64,"
        }
    ]
}
